<?xml version="1.0" standalone="no"?><!DOCTYPE svg PUBLIC "-//W3C//DTD SVG 1.1//EN" "http://www.w3.org/Graphics/SVG/1.1/DTD/svg11.dtd"><svg t="1649496959903" class="icon" viewBox="0 0 1024 1024" version="1.1" xmlns="http://www.w3.org/2000/svg" p-id="2241" width="48" height="48" xmlns:xlink="http://www.w3.org/1999/xlink"><path d="M986.112 615.936l-88.064-69.632c1.024-12.288 1.536-23.552 1.536-34.304s-0.512-22.016-1.536-34.304l88.576-70.144c20.48-16.384 25.6-45.056 12.288-67.584l-95.744-167.424c-12.8-22.528-40.96-32.768-65.536-23.04l-103.936 41.984c-18.432-13.312-37.888-24.576-58.368-34.304l-15.872-112.128C655.36 18.944 633.344 0.512 607.232 0H416.256c-26.112 0-48.128 18.944-52.224 45.568L348.16 157.184c-20.48 9.728-39.936 20.992-58.368 34.304l-104.448-42.496c-23.552-9.216-52.224 1.024-65.024 23.04L24.576 339.456c-13.312 23.04-7.68 51.712 12.8 68.096l88.576 70.144c-1.024 12.288-1.536 23.552-1.536 34.304 0 10.752 0.512 22.016 1.536 34.304L37.376 616.448c-19.968 16.384-25.6 45.056-12.288 67.584l95.744 167.424c13.312 23.04 40.96 32.768 65.536 23.04l103.936-42.496c18.432 13.312 37.888 24.576 58.368 34.304l15.872 112.64c4.096 25.6 26.112 45.056 52.224 45.056h191.488c26.112 0 48.128-19.456 52.224-45.568l15.872-112.128c20.48-9.728 39.936-20.992 58.368-34.304l104.448 42.496c6.144 2.56 12.288 3.584 18.944 3.584 18.944 0 36.352-10.24 45.568-26.624l95.232-167.424c13.312-22.528 7.68-51.2-12.8-68.096z m-811.52-33.792c7.68-6.144 12.288-16.384 10.752-26.624-2.048-14.336-3.072-29.184-3.072-43.52s1.024-29.184 3.072-43.52c1.536-10.24-2.56-20.48-10.752-26.624L76.288 367.104l89.6-162.816 117.248 47.616c9.728 4.096 20.48 2.56 28.672-4.096 22.528-17.92 47.616-32.256 74.24-43.52 9.216-4.096 15.872-12.8 17.408-23.04l14.848-123.392 184.32-2.56 17.408 125.952c1.536 10.24 8.192 18.944 17.408 22.528 26.624 11.264 51.712 26.112 74.24 43.52 8.192 6.144 18.944 7.68 28.672 4.096l113.152-48.64L948.736 363.52l-99.328 78.848c-8.192 6.144-12.288 16.384-10.752 26.624 2.048 14.336 3.072 29.184 3.072 43.52s-1.024 29.184-3.072 43.52c-1.024 10.24 3.072 19.968 10.752 26.624l98.304 75.264-89.6 162.816-117.248-47.616c-9.728-4.096-20.48-2.56-28.672 4.096-22.528 17.92-47.616 32.256-74.24 43.52-9.216 4.096-16.384 12.8-17.408 23.04l-17.408 123.392-181.76 2.56-17.92-125.952c-1.536-10.24-8.192-18.944-17.408-23.04-26.624-11.264-51.712-25.6-74.24-43.52-5.12-4.096-11.264-6.144-17.92-6.144-3.584 0-7.68 0.512-10.752 2.048l-113.152 48.64L75.264 660.48l99.328-78.336z"></path><path d="M512 716.288c111.616 0 202.752-91.648 202.752-204.288S623.616 307.2 512 307.2c-111.616 0.512-202.752 92.16-202.752 204.8s91.136 204.288 202.752 204.288zM367.104 512c0-80.896 65.024-146.432 144.896-146.432 79.872 0 144.896 65.536 144.896 146.432s-65.024 146.432-144.896 146.432h-2.048c-78.848-1.024-142.848-66.56-142.848-146.432z"></path></svg>